<svg width="14" height="14" viewBox="0 0 14 14" fill="none" xmlns="http://www.w3.org/2000/svg">
<g clip-path="url(#clip0_2712_1113)">
<path d="M10.5 6.67692C10.6077 6.83846 10.7154 7 10.7692 7.26923H9.04615C9.04615 7.21538 9.04615 7.10769 9.1 7C9.15385 6.89231 9.15385 6.83846 9.26154 6.73077C9.31539 6.62308 9.42308 6.56923 9.53077 6.51539C9.63846 6.46154 9.8 6.40769 9.96154 6.40769C10.1769 6.46154 10.3923 6.51538 10.5 6.67692ZM5.54615 6.3C5.65385 6.19231 5.76154 6.03077 5.76154 5.81539C5.76154 5.70769 5.76154 5.6 5.70769 5.49231C5.65385 5.43846 5.6 5.33077 5.54615 5.33077C5.49231 5.27692 5.38462 5.27692 5.27692 5.22308H3.87692V6.46154H5.06154C5.22308 6.46154 5.38462 6.40769 5.54615 6.3ZM5.11538 7.21538H3.87692V8.66923H5.11538C5.22308 8.66923 5.33077 8.66923 5.43846 8.61539C5.54615 8.61539 5.65385 8.56154 5.70769 8.50769C5.76154 8.45385 5.86923 8.4 5.92308 8.29231C5.97692 8.18462 5.97692 8.07692 5.97692 7.96923C5.97692 7.7 5.92308 7.48462 5.76154 7.37692C5.6 7.26923 5.38462 7.21538 5.11538 7.21538ZM14 2.63846V11.3615C14 12.8154 12.8154 14 11.3615 14H2.63846C1.18462 14 0 12.8154 0 11.3615V2.63846C0 1.18462 1.18462 0 2.63846 0H11.3615C12.8154 0 14 1.18462 14 2.63846ZM8.83077 5.16923H10.9846V4.63077H8.83077V5.16923ZM7.10769 8.07692C7.10769 7.75385 7.05385 7.48462 6.89231 7.21538C6.73077 7 6.51538 6.83846 6.19231 6.73077C6.40769 6.62308 6.62308 6.46154 6.73077 6.3C6.83846 6.13846 6.89231 5.92308 6.89231 5.65385C6.89231 5.25 6.83846 5.22308 6.78462 5.00769C6.67692 4.84615 6.56923 4.68462 6.46154 4.63077C6.3 4.52308 6.13846 4.46923 5.92308 4.41538C5.65385 4.30769 5.43846 4.30769 5.16923 4.30769H2.69231V9.58462H5.27692C5.49231 9.58462 5.76154 9.53077 5.97692 9.47692C6.19231 9.42308 6.40769 9.31539 6.56923 9.20769C6.73077 9.1 6.89231 8.93846 7 8.72308C7.05385 8.56154 7.10769 8.34615 7.10769 8.07692ZM9.04615 7.91538H11.7923C11.7923 7.59231 11.7923 7.32308 11.7385 7.05385C11.6846 6.78462 11.5769 6.51539 11.4154 6.35385C11.2538 6.13846 11.0385 5.97692 10.8231 5.86923C10.5538 5.76154 10.2846 5.65385 9.96154 5.65385C9.69231 5.65385 9.42308 5.70769 9.15385 5.81539C8.93846 5.92308 8.72308 6.08462 8.50769 6.24615C8.34615 6.40769 8.18462 6.62308 8.13077 6.89231C8.02308 7.16154 7.96923 7.43077 7.96923 7.7C7.96923 8.10385 8.02308 8.29231 8.13077 8.50769C8.23846 8.77692 8.34615 8.99231 8.50769 9.15385C8.66923 9.31539 8.88462 9.47692 9.1 9.58462C9.36923 9.69231 9.63846 9.74615 9.90769 9.74615C10.3385 9.74615 10.7154 9.63846 11.0385 9.42308C11.3615 9.20769 11.5769 8.88462 11.7385 8.45385H10.8231C10.7692 8.56154 10.7154 8.66923 10.5538 8.77692C10.3923 8.88462 10.2308 8.93846 10.0154 8.93846C9.74615 8.93846 9.47692 8.88462 9.31538 8.72308C9.15385 8.50769 9.04615 8.23846 9.04615 7.91538Z" fill="#C78666"/>
</g>
<defs>
<clipPath id="clip0_2712_1113">
<rect width="14" height="14" fill="white"/>
</clipPath>
</defs>
</svg>
