<svg width="14" height="14" viewBox="0 0 14 14" fill="none" xmlns="http://www.w3.org/2000/svg">
<path d="M2.33333 1.80859C1.71449 1.80859 1.121 2.04038 0.683417 2.45296C0.245833 2.86554 0 3.42512 0 4.00859V4.22969L7 7.78379L14 4.23079V4.00859C14 3.42512 13.7542 2.86554 13.3166 2.45296C12.879 2.04038 12.2855 1.80859 11.6667 1.80859H2.33333ZM14 5.47929L7.2765 8.89259C7.19152 8.93573 7.09651 8.95831 7 8.95831C6.90349 8.95831 6.80848 8.93573 6.7235 8.89259L0 5.47929V10.6086C0 11.1921 0.245833 11.7516 0.683417 12.1642C1.121 12.5768 1.71449 12.8086 2.33333 12.8086H11.6667C12.2855 12.8086 12.879 12.5768 13.3166 12.1642C13.7542 11.7516 14 11.1921 14 10.6086V5.47929Z" fill="#C78666"/>
</svg>
