<svg width="594" height="752" viewBox="0 0 594 752" fill="none" xmlns="http://www.w3.org/2000/svg">
<path d="M249.652 517.348L297 594V470L249.652 517.348Z" fill="#F29F05"/>
<path d="M297 594L344.348 517.348L297 470V594Z" fill="#F29F05"/>
<path d="M410.406 183.594L323.374 42.6975C311.26 23.0858 282.74 23.0858 270.626 42.6975L183.594 183.594M410.406 183.594L551.302 270.626C570.914 282.74 570.914 311.26 551.303 323.374L410.406 410.406M410.406 183.594L297 116.5M410.406 410.406L297 594M410.406 410.406L344.348 517.348M297 594L183.594 410.406M297 594V470M297 594L249.652 517.348M297 594L344.348 517.348M183.594 410.406L42.6975 323.374C23.0858 311.26 23.0858 282.74 42.6975 270.626L183.594 183.594M183.594 410.406L249.652 517.348M183.594 183.594L297 116.5M297 116.5V470M344.348 517.348L297 470M297 470L249.652 517.348" stroke="#F29F05" stroke-width="32"/>
<circle cx="296.5" cy="660.5" r="17.5" fill="#F29F05"/>
<circle cx="296.5" cy="705.5" r="13.5" fill="#F29F05"/>
<circle cx="296.5" cy="742.5" r="9.5" fill="#F29F05"/>
</svg>
