<svg width="256" height="257" viewBox="0 0 256 257" fill="none" xmlns="http://www.w3.org/2000/svg">
<path d="M128 24.1003C107.431 24.1003 87.3235 30.1998 70.2207 41.6274C53.118 53.0551 39.7881 69.2977 31.9166 88.3012C24.0451 107.305 21.9855 128.216 25.9984 148.39C30.0112 168.564 39.9163 187.095 54.4609 201.639C69.0056 216.184 87.5366 226.089 107.711 230.102C127.885 234.115 148.796 232.055 167.799 224.184C186.803 216.312 203.045 202.982 214.473 185.88C225.901 168.777 232 148.67 232 128.1C231.968 100.528 221.001 74.0932 201.504 54.5963C182.007 35.0993 155.573 24.132 128 24.1003ZM216 128.1C216.007 136.216 214.886 144.293 212.67 152.1H174.16C176.614 136.194 176.614 120.006 174.16 104.1H212.67C214.886 111.907 216.007 119.985 216 128.1ZM102 168.1H154C148.877 184.886 139.984 200.279 128 213.1C116.022 200.274 107.129 184.884 102 168.1ZM98.1 152.1C95.3527 136.218 95.3527 119.982 98.1 104.1H157.98C160.727 119.982 160.727 136.218 157.98 152.1H98.1ZM40 128.1C39.993 119.985 41.1137 111.907 43.33 104.1H81.84C79.3861 120.006 79.3861 136.194 81.84 152.1H43.33C41.1137 144.293 39.993 136.216 40 128.1ZM154 88.1003H102C107.123 71.3142 116.016 55.9219 128 43.1003C139.978 55.9261 148.871 71.3171 154 88.1003ZM206.33 88.1003H170.71C166.22 71.6295 158.654 56.1573 148.41 42.5003C160.787 45.4736 172.375 51.088 182.379 58.9588C192.383 66.8296 200.567 76.7706 206.37 88.1003H206.33ZM107.59 42.5003C97.3464 56.1573 89.78 71.6295 85.29 88.1003H49.63C55.4328 76.7706 63.6167 66.8296 73.6209 58.9588C83.6251 51.088 95.2129 45.4736 107.59 42.5003ZM49.63 168.1H85.29C89.78 184.571 97.3464 200.043 107.59 213.7C95.2129 210.727 83.6251 205.113 73.6209 197.242C63.6167 189.371 55.4328 179.43 49.63 168.1ZM148.41 213.7C158.654 200.043 166.22 184.571 170.71 168.1H206.37C200.567 179.43 192.383 189.371 182.379 197.242C172.375 205.113 160.787 210.727 148.41 213.7Z" fill="white"/>
</svg>
