<svg width="38" height="38" viewBox="0 0 38 38" fill="none" xmlns="http://www.w3.org/2000/svg">
<path d="M18.9998 18.2084C17.95 18.2084 16.9432 17.7913 16.2009 17.049C15.4585 16.3067 15.0415 15.2998 15.0415 14.25C15.0415 13.2002 15.4585 12.1934 16.2009 11.4511C16.9432 10.7087 17.95 10.2917 18.9998 10.2917C20.0497 10.2917 21.0565 10.7087 21.7988 11.4511C22.5411 12.1934 22.9582 13.2002 22.9582 14.25C22.9582 14.7698 22.8558 15.2846 22.6569 15.7648C22.4579 16.2451 22.1664 16.6814 21.7988 17.049C21.4312 17.4166 20.9949 17.7081 20.5146 17.907C20.0344 18.106 19.5197 18.2084 18.9998 18.2084ZM18.9998 3.16669C16.0604 3.16669 13.2413 4.33439 11.1627 6.41292C9.08421 8.49145 7.9165 11.3105 7.9165 14.25C7.9165 22.5625 18.9998 34.8334 18.9998 34.8334C18.9998 34.8334 30.0832 22.5625 30.0832 14.25C30.0832 11.3105 28.9155 8.49145 26.8369 6.41292C24.7584 4.33439 21.9393 3.16669 18.9998 3.16669Z" fill="white"/>
</svg>
