<svg width="595" height="752" viewBox="0 0 595 752" fill="none" xmlns="http://www.w3.org/2000/svg">
<path d="M249.9 517.343L297.248 593.996V469.996L249.9 517.343Z" fill="#FAD38C"/>
<path d="M297.248 593.996L344.596 517.343L297.248 469.996V593.996Z" fill="#FAD38C"/>
<path d="M410.654 183.59L323.622 42.6931C311.508 23.0814 282.988 23.0814 270.874 42.6931L183.842 183.59M410.654 183.59L551.551 270.621C571.162 282.736 571.162 311.256 551.551 323.37L410.654 410.401M410.654 183.59L297.248 116.496M410.654 410.401L297.248 593.996M410.654 410.401L344.596 517.343M297.248 593.996L183.842 410.401M297.248 593.996V469.996M297.248 593.996L249.9 517.343M297.248 593.996L344.596 517.343M183.842 410.401L42.9455 323.37C23.3339 311.256 23.3338 282.736 42.9455 270.621L183.842 183.59M183.842 410.401L249.9 517.343M183.842 183.59L297.248 116.496M297.248 116.496V469.996M344.596 517.343L297.248 469.996M297.248 469.996L249.9 517.343" stroke="#FAD38C" stroke-width="32"/>
<circle cx="296.748" cy="660.496" r="17.5" fill="#FAD38C"/>
<circle cx="296.748" cy="705.496" r="13.5" fill="#FAD38C"/>
<circle cx="296.748" cy="742.496" r="9.5" fill="#FAD38C"/>
</svg>
