<svg width="34" height="35" viewBox="0 0 34 35" fill="none" xmlns="http://www.w3.org/2000/svg">
<path d="M8.5 6.5625C7.37283 6.5625 6.29183 7.02344 5.4948 7.84391C4.69777 8.66438 4.25 9.77718 4.25 10.9375V11.3772L17 18.445L29.75 11.3794V10.9375C29.75 9.77718 29.3022 8.66438 28.5052 7.84391C27.7082 7.02344 26.6272 6.5625 25.5 6.5625H8.5ZM29.75 13.8622L17.5036 20.65C17.3488 20.7358 17.1758 20.7807 17 20.7807C16.8242 20.7807 16.6512 20.7358 16.4964 20.65L4.25 13.8622V24.0625C4.25 25.2228 4.69777 26.3356 5.4948 27.1561C6.29183 27.9766 7.37283 28.4375 8.5 28.4375H25.5C26.6272 28.4375 27.7082 27.9766 28.5052 27.1561C29.3022 26.3356 29.75 25.2228 29.75 24.0625V13.8622Z" fill="white"/>
</svg>
